<svg xmlns="http://www.w3.org/2000/svg" viewBox="0 0 512 512"><path fill="#8b4513" d="M252.35 51.451c-18.22 16.765-31.721 30.803-40.696 48.492a573.792 573.792 0 0 1 30.797 14.065c.876-.446 1.748-.898 2.627-1.338-.985-21.191 2.408-39.965 7.272-61.219zM39.643 77.291c21.648 9.825 43.38 20.02 64.914 30.695 1.554-7.954 3.772-14.668 8.289-20.63-25.904-5.73-50.637-9.046-73.203-10.065zm363.352 11.822c-48.633 2.463-96.585 15.058-140.09 35.496 13.816 7.717 25.764 14.693 37.52 22.332 21.9-14.496 70.579-39.08 101.78-51.373v39.338c6.034-1.671 12.532-1.336 17.998.666V88.961c-7.013-.32-11.8-.13-17.208.152zM133.504 92.38c-8.931 5.494-10.828 15.551-11.973 24.15 6.966 3.558 13.901 7.17 20.8 10.84 2.334-10.442 7.597-19.885 15.314-27.976a534.283 534.283 0 0 0-24.141-7.014zm43.598 13.584c-11.631 8.575-17.221 18.189-18.028 30.467a1085.447 1085.447 0 0 1 37.985 21.933c13.027-2.617 26.492-4.302 40.17-5.271.276-6.197 1.214-12.82 3.068-19.965a554.898 554.898 0 0 0-63.195-27.164zm79.47 35.726a74.438 74.438 0 0 0-1.623 10.553c6.958-.2 13.29-.237 19.723-.162a536.468 536.468 0 0 0-18.1-10.39zM90.94 389.902c-5.764 3.732-11.189 7.886-16.408 12.348a297.288 297.288 0 0 1 12.026 15.354c.945-8.997 2.414-18.268 4.382-27.702zm-52.003.803a344.25 344.25 0 0 0-5.454 25.961c5.114-5.262 10.267-10.59 15.653-15.834a271.026 271.026 0 0 0-10.2-10.127zm441.34 14.922c-3.766 5.037-7.48 10.381-11.124 15.91 7.409 7.724 14.538 15.58 21.543 23.461a450.711 450.711 0 0 0-10.42-39.371zm-44.678 8.166c-.554 11.9-1.602 23.048-3.092 33.164 4.339-7.542 8.88-15.31 13.68-23.07a419.389 419.389 0 0 0-10.588-10.094zM29.842 445.744c-.983 11.546-2.93 26.6 7.535 32.596 5.018 2.794 12.75 3.938 20.75 3.049 8-.89 16.136-3.772 21.539-7.325 5.403-3.552 7.231-7.011 7.186-9.043-.406-5.728-1.175-11.65-1.405-16.835-7.327-11.919-14.361-24.404-26.154-32.1-12.289 9.437-18.357 19.266-29.451 29.658zm429.392-8.502c-8.303 13.622-16.025 27.32-23.107 39.617 9.047 9.572 23.629 12.14 36.78 9.534 7.233-1.434 13.674-4.482 17.59-7.854 1.27-1.095 2.233-2.133 2.976-3.146-11.34-12.924-22.547-25.775-34.239-38.15zm-105.421 37.115-194.356.916-.861 13.782 194.355-.918z"/></svg>