<svg xmlns="http://www.w3.org/2000/svg" viewBox="0 0 512 512"><path fill="#8b7355" d="M256.22 18.375c-132.32 0-239.783 107.43-239.783 239.75S123.9 497.905 256.22 497.905 496 390.446 496 258.126 388.54 18.375 256.22 18.375zm0 17.875c102.773 0 189.092 69.664 214.374 164.406l-79.313-81.47-6.967-7.155-6.688 7.47-77.22 86.438a1912.536 1912.536 0 0 0-34.467-30.063l-6.563-5.625-6.125 6.156a3510.226 3510.226 0 0 0-55.438 57.094l-76.437-83.375-6.875-7.5-6.875 7.5-71.188 77.313C51.364 119.34 143.983 36.25 256.22 36.25z"/></svg>